# ProBuilder 4.0.5
# https://unity3d.com/unity/features/worldbuilding/probuilder
# 10/31/2019 11:59:55 AM

mtllib ./Wall05.fbx.mtl
o Wall05.fbx

g Plane
v 0 0 0
v 0 0 0.909091
v -0.909091 0 0
v -0.909091 0 0.909091
v 0 0 1.818182
v -0.909091 0 1.818182
v 0 0 2.727273
v -0.909091 0 2.727273
v 0 0 3.636364
v -0.909091 0 3.636364
v 0 0 4.545455
v -0.909091 0 4.545455
v 0 0 5.454545
v -0.909091 0 5.454545
v 0 0 6.363636
v -0.909091 0 6.363636
v 0 0 7.272727
v -0.909091 0 7.272727
v 0 0 8.181818
v -0.909091 0 8.181818
v 0 0 9.090909
v -0.909091 0 9.090909
v 0 0 10
v -0.909091 0 10
v -1.818182 0 0
v -1.818182 0 0.909091
v -1.818182 0 1.818182
v -1.818182 0 2.727273
v -1.818182 0 3.636364
v -1.818182 0 4.545455
v -1.818182 0 5.454545
v -1.818182 0 6.363636
v -1.818182 0 7.272727
v -1.818182 0 8.181818
v -1.818182 0 9.090909
v -1.818182 0 10
v -2.727273 0 0
v -2.727273 0 0.909091
v -2.727273 0 1.818182
v -2.727273 0 2.727273
v -2.727273 0 3.636364
v -2.727273 0 4.545455
v -2.727273 0 5.454545
v -2.727273 0 6.363636
v -2.727273 0 7.272727
v -2.727273 0 8.181818
v -2.727273 0 9.090909
v -2.727273 0 10
v -3.636364 0 0
v -3.636364 0 0.909091
v -3.636364 0 1.818182
v -3.636364 0 2.727273
v -3.636364 0 3.636364
v -3.636364 0 4.545455
v -3.636364 0 5.454545
v -3.636364 0 6.363636
v -3.636364 0 7.272727
v -3.636364 0 8.181818
v -3.636364 0 9.090909
v -3.636364 0 10
v -4.545455 0 0
v -4.545455 0 0.909091
v -4.545455 0 1.818182
v -4.545455 0 2.727273
v -4.545455 0 3.636364
v -4.545455 0 4.545455
v -4.545455 0 5.454545
v -4.545455 0 6.363636
v -4.545455 0 7.272727
v -4.545455 0 8.181818
v -4.545455 0 9.090909
v -4.545455 0 10
v -5.454545 0 0
v -5.454545 0 0.909091
v -5.454545 0 1.818182
v -5.454545 0 2.727273
v -5.454545 0 3.636364
v -5.454545 0 4.545455
v -5.454545 0 5.454545
v -5.454545 0 6.363636
v -5.454545 0 7.272727
v -5.454545 0 8.181818
v -5.454545 0 9.090909
v -5.454545 0 10
v -6.363636 0 0
v -6.363636 0 0.909091
v -6.363636 0 1.818182
v -6.363636 0 2.727273
v -6.363636 0 3.636364
v -6.363636 0 4.545455
v -6.363636 0 5.454545
v -6.363636 0 6.363636
v -6.363636 0 7.272727
v -6.363636 0 8.181818
v -6.363636 0 9.090909
v -6.363636 0 10
v -7.272727 0 0
v -7.272727 0 0.909091
v -7.272727 0 1.818182
v -7.272727 0 2.727273
v -7.272727 0 3.636364
v -7.272727 0 4.545455
v -7.272727 0 5.454545
v -7.272727 0 6.363636
v -7.272727 0 7.272727
v -7.272727 0 8.181818
v -7.272727 0 9.090909
v -7.272727 0 10
v -8.181818 0 0
v -8.181818 0 0.909091
v -8.181818 0 1.818182
v -8.181818 0 2.727273
v -8.181818 0 3.636364
v -8.181818 0 4.545455
v -8.181818 0 5.454545
v -8.181818 0 6.363636
v -8.181818 0 7.272727
v -8.181818 0 8.181818
v -8.181818 0 9.090909
v -8.181818 0 10
v -9.090909 0 0
v -9.090909 0 0.909091
v -9.090909 0 1.818182
v -9.090909 0 2.727273
v -9.090909 0 3.636364
v -9.090909 0 4.545455
v -9.090909 0 5.454545
v -9.090909 0 6.363636
v -9.090909 0 7.272727
v -9.090909 0 8.181818
v -9.090909 0 9.090909
v -9.090909 0 10
v -10 0 0
v -10 0 0.909091
v -10 0 1.818182
v -10 0 2.727273
v -10 0 3.636364
v -10 0 4.545455
v -10 0 5.454545
v -10 0 6.363636
v -10 0 7.272727
v -10 0 8.181818
v -10 0 9.090909
v -10 0 10

vt 0 0
vt 0 0.909091
vt 0.909091 0
vt 0.909091 0.909091
vt 0 1.818182
vt 0.909091 1.818182
vt 0 2.727273
vt 0.909091 2.727273
vt 0 3.636364
vt 0.909091 3.636364
vt 0 4.545455
vt 0.909091 4.545455
vt 0 5.454545
vt 0.909091 5.454545
vt 0 6.363636
vt 0.909091 6.363636
vt 0 7.272727
vt 0.909091 7.272727
vt 0 8.181818
vt 0.909091 8.181818
vt 0 9.090909
vt 0.909091 9.090909
vt 0 10
vt 0.909091 10
vt 1.818182 0
vt 1.818182 0.909091
vt 1.818182 1.818182
vt 1.818182 2.727273
vt 1.818182 3.636364
vt 1.818182 4.545455
vt 1.818182 5.454545
vt 1.818182 6.363636
vt 1.818182 7.272727
vt 1.818182 8.181818
vt 1.818182 9.090909
vt 1.818182 10
vt 2.727273 0
vt 2.727273 0.909091
vt 2.727273 1.818182
vt 2.727273 2.727273
vt 2.727273 3.636364
vt 2.727273 4.545455
vt 2.727273 5.454545
vt 2.727273 6.363636
vt 2.727273 7.272727
vt 2.727273 8.181818
vt 2.727273 9.090909
vt 2.727273 10
vt 3.636364 0
vt 3.636364 0.909091
vt 3.636364 1.818182
vt 3.636364 2.727273
vt 3.636364 3.636364
vt 3.636364 4.545455
vt 3.636364 5.454545
vt 3.636364 6.363636
vt 3.636364 7.272727
vt 3.636364 8.181818
vt 3.636364 9.090909
vt 3.636364 10
vt 4.545455 0
vt 4.545455 0.909091
vt 4.545455 1.818182
vt 4.545455 2.727273
vt 4.545455 3.636364
vt 4.545455 4.545455
vt 4.545455 5.454545
vt 4.545455 6.363636
vt 4.545455 7.272727
vt 4.545455 8.181818
vt 4.545455 9.090909
vt 4.545455 10
vt 5.454545 0
vt 5.454545 0.909091
vt 5.454545 1.818182
vt 5.454545 2.727273
vt 5.454545 3.636364
vt 5.454545 4.545455
vt 5.454545 5.454545
vt 5.454545 6.363636
vt 5.454545 7.272727
vt 5.454545 8.181818
vt 5.454545 9.090909
vt 5.454545 10
vt 6.363636 0
vt 6.363636 0.909091
vt 6.363636 1.818182
vt 6.363636 2.727273
vt 6.363636 3.636364
vt 6.363636 4.545455
vt 6.363636 5.454545
vt 6.363636 6.363636
vt 6.363636 7.272727
vt 6.363636 8.181818
vt 6.363636 9.090909
vt 6.363636 10
vt 7.272727 0
vt 7.272727 0.909091
vt 7.272727 1.818182
vt 7.272727 2.727273
vt 7.272727 3.636364
vt 7.272727 4.545455
vt 7.272727 5.454545
vt 7.272727 6.363636
vt 7.272727 7.272727
vt 7.272727 8.181818
vt 7.272727 9.090909
vt 7.272727 10
vt 8.181818 0
vt 8.181818 0.909091
vt 8.181818 1.818182
vt 8.181818 2.727273
vt 8.181818 3.636364
vt 8.181818 4.545455
vt 8.181818 5.454545
vt 8.181818 6.363636
vt 8.181818 7.272727
vt 8.181818 8.181818
vt 8.181818 9.090909
vt 8.181818 10
vt 9.090909 0
vt 9.090909 0.909091
vt 9.090909 1.818182
vt 9.090909 2.727273
vt 9.090909 3.636364
vt 9.090909 4.545455
vt 9.090909 5.454545
vt 9.090909 6.363636
vt 9.090909 7.272727
vt 9.090909 8.181818
vt 9.090909 9.090909
vt 9.090909 10
vt 10 0
vt 10 0.909091
vt 10 1.818182
vt 10 2.727273
vt 10 3.636364
vt 10 4.545455
vt 10 5.454545
vt 10 6.363636
vt 10 7.272727
vt 10 8.181818
vt 10 9.090909
vt 10 10

vn 0 1 0

g Plane
usemtl ProBuilderDefault
f 3/3/1 4/4/1 2/2/1 1/1/1
f 4/4/1 6/6/1 5/5/1 2/2/1
f 6/6/1 8/8/1 7/7/1 5/5/1
f 8/8/1 10/10/1 9/9/1 7/7/1
f 10/10/1 12/12/1 11/11/1 9/9/1
f 12/12/1 14/14/1 13/13/1 11/11/1
f 14/14/1 16/16/1 15/15/1 13/13/1
f 16/16/1 18/18/1 17/17/1 15/15/1
f 18/18/1 20/20/1 19/19/1 17/17/1
f 20/20/1 22/22/1 21/21/1 19/19/1
f 22/22/1 24/24/1 23/23/1 21/21/1
f 25/25/1 26/26/1 4/4/1 3/3/1
f 26/26/1 27/27/1 6/6/1 4/4/1
f 27/27/1 28/28/1 8/8/1 6/6/1
f 28/28/1 29/29/1 10/10/1 8/8/1
f 29/29/1 30/30/1 12/12/1 10/10/1
f 30/30/1 31/31/1 14/14/1 12/12/1
f 31/31/1 32/32/1 16/16/1 14/14/1
f 32/32/1 33/33/1 18/18/1 16/16/1
f 33/33/1 34/34/1 20/20/1 18/18/1
f 34/34/1 35/35/1 22/22/1 20/20/1
f 35/35/1 36/36/1 24/24/1 22/22/1
f 37/37/1 38/38/1 26/26/1 25/25/1
f 38/38/1 39/39/1 27/27/1 26/26/1
f 39/39/1 40/40/1 28/28/1 27/27/1
f 40/40/1 41/41/1 29/29/1 28/28/1
f 41/41/1 42/42/1 30/30/1 29/29/1
f 42/42/1 43/43/1 31/31/1 30/30/1
f 43/43/1 44/44/1 32/32/1 31/31/1
f 44/44/1 45/45/1 33/33/1 32/32/1
f 45/45/1 46/46/1 34/34/1 33/33/1
f 46/46/1 47/47/1 35/35/1 34/34/1
f 47/47/1 48/48/1 36/36/1 35/35/1
f 49/49/1 50/50/1 38/38/1 37/37/1
f 50/50/1 51/51/1 39/39/1 38/38/1
f 51/51/1 52/52/1 40/40/1 39/39/1
f 52/52/1 53/53/1 41/41/1 40/40/1
f 53/53/1 54/54/1 42/42/1 41/41/1
f 54/54/1 55/55/1 43/43/1 42/42/1
f 55/55/1 56/56/1 44/44/1 43/43/1
f 56/56/1 57/57/1 45/45/1 44/44/1
f 57/57/1 58/58/1 46/46/1 45/45/1
f 58/58/1 59/59/1 47/47/1 46/46/1
f 59/59/1 60/60/1 48/48/1 47/47/1
f 61/61/1 62/62/1 50/50/1 49/49/1
f 62/62/1 63/63/1 51/51/1 50/50/1
f 63/63/1 64/64/1 52/52/1 51/51/1
f 64/64/1 65/65/1 53/53/1 52/52/1
f 65/65/1 66/66/1 54/54/1 53/53/1
f 66/66/1 67/67/1 55/55/1 54/54/1
f 67/67/1 68/68/1 56/56/1 55/55/1
f 68/68/1 69/69/1 57/57/1 56/56/1
f 69/69/1 70/70/1 58/58/1 57/57/1
f 70/70/1 71/71/1 59/59/1 58/58/1
f 71/71/1 72/72/1 60/60/1 59/59/1
f 73/73/1 74/74/1 62/62/1 61/61/1
f 74/74/1 75/75/1 63/63/1 62/62/1
f 75/75/1 76/76/1 64/64/1 63/63/1
f 76/76/1 77/77/1 65/65/1 64/64/1
f 77/77/1 78/78/1 66/66/1 65/65/1
f 78/78/1 79/79/1 67/67/1 66/66/1
f 79/79/1 80/80/1 68/68/1 67/67/1
f 80/80/1 81/81/1 69/69/1 68/68/1
f 81/81/1 82/82/1 70/70/1 69/69/1
f 82/82/1 83/83/1 71/71/1 70/70/1
f 83/83/1 84/84/1 72/72/1 71/71/1
f 85/85/1 86/86/1 74/74/1 73/73/1
f 86/86/1 87/87/1 75/75/1 74/74/1
f 87/87/1 88/88/1 76/76/1 75/75/1
f 88/88/1 89/89/1 77/77/1 76/76/1
f 89/89/1 90/90/1 78/78/1 77/77/1
f 90/90/1 91/91/1 79/79/1 78/78/1
f 91/91/1 92/92/1 80/80/1 79/79/1
f 92/92/1 93/93/1 81/81/1 80/80/1
f 93/93/1 94/94/1 82/82/1 81/81/1
f 94/94/1 95/95/1 83/83/1 82/82/1
f 95/95/1 96/96/1 84/84/1 83/83/1
f 97/97/1 98/98/1 86/86/1 85/85/1
f 98/98/1 99/99/1 87/87/1 86/86/1
f 99/99/1 100/100/1 88/88/1 87/87/1
f 100/100/1 101/101/1 89/89/1 88/88/1
f 101/101/1 102/102/1 90/90/1 89/89/1
f 102/102/1 103/103/1 91/91/1 90/90/1
f 103/103/1 104/104/1 92/92/1 91/91/1
f 104/104/1 105/105/1 93/93/1 92/92/1
f 105/105/1 106/106/1 94/94/1 93/93/1
f 106/106/1 107/107/1 95/95/1 94/94/1
f 107/107/1 108/108/1 96/96/1 95/95/1
f 109/109/1 110/110/1 98/98/1 97/97/1
f 110/110/1 111/111/1 99/99/1 98/98/1
f 111/111/1 112/112/1 100/100/1 99/99/1
f 112/112/1 113/113/1 101/101/1 100/100/1
f 113/113/1 114/114/1 102/102/1 101/101/1
f 114/114/1 115/115/1 103/103/1 102/102/1
f 115/115/1 116/116/1 104/104/1 103/103/1
f 116/116/1 117/117/1 105/105/1 104/104/1
f 117/117/1 118/118/1 106/106/1 105/105/1
f 118/118/1 119/119/1 107/107/1 106/106/1
f 119/119/1 120/120/1 108/108/1 107/107/1
f 121/121/1 122/122/1 110/110/1 109/109/1
f 122/122/1 123/123/1 111/111/1 110/110/1
f 123/123/1 124/124/1 112/112/1 111/111/1
f 124/124/1 125/125/1 113/113/1 112/112/1
f 125/125/1 126/126/1 114/114/1 113/113/1
f 126/126/1 127/127/1 115/115/1 114/114/1
f 127/127/1 128/128/1 116/116/1 115/115/1
f 128/128/1 129/129/1 117/117/1 116/116/1
f 129/129/1 130/130/1 118/118/1 117/117/1
f 130/130/1 131/131/1 119/119/1 118/118/1
f 131/131/1 132/132/1 120/120/1 119/119/1
f 133/133/1 134/134/1 122/122/1 121/121/1
f 134/134/1 135/135/1 123/123/1 122/122/1
f 135/135/1 136/136/1 124/124/1 123/123/1
f 136/136/1 137/137/1 125/125/1 124/124/1
f 137/137/1 138/138/1 126/126/1 125/125/1
f 138/138/1 139/139/1 127/127/1 126/126/1
f 139/139/1 140/140/1 128/128/1 127/127/1
f 140/140/1 141/141/1 129/129/1 128/128/1
f 141/141/1 142/142/1 130/130/1 129/129/1
f 142/142/1 143/143/1 131/131/1 130/130/1
f 143/143/1 144/144/1 132/132/1 131/131/1

