# ProBuilder 4.0.5
# https://unity3d.com/unity/features/worldbuilding/probuilder
# 11/13/2019 1:05:14 PM

mtllib ./Wall04.fbx.mtl
o Wall04.fbx

g Plane
v 0 10 0
v 0 10 0.709091
v -0.709091 10 0
v -0.709091 10 0.709091
v 0 0.2 0.909091
v -0.709091 0.2 0.909091
v 0 0.8 0.909091
v -0.709091 0.8 0.909091
v -0.909091 0.2 0.709091
v -0.909091 0.2 0
v -0.909091 0.8 0.709091
v -0.909091 0.8 0
v 0 1.2 0.909091
v -0.709091 1.2 0.909091
v 0 1.8 0.909091
v -0.709091 1.8 0.909091
v -0.909091 1.2 0.709091
v -0.909091 1.2 0
v -0.909091 1.8 0.709091
v -0.909091 1.8 0
v 0 2.2 0.909091
v -0.709091 2.2 0.909091
v 0 2.8 0.909091
v -0.709091 2.8 0.909091
v -0.909091 2.2 0.709091
v -0.909091 2.2 0
v -0.909091 2.8 0.709091
v -0.909091 2.8 0
v 0 3.2 0.909091
v -0.709091 3.2 0.909091
v 0 3.8 0.909091
v -0.709091 3.8 0.909091
v -0.909091 3.2 0.709091
v -0.909091 3.2 0
v -0.909091 3.8 0.709091
v -0.909091 3.8 0
v 0 4.2 0.909091
v -0.709091 4.2 0.909091
v 0 4.8 0.909091
v -0.709091 4.8 0.909091
v -0.909091 4.2 0.709091
v -0.909091 4.2 0
v -0.909091 4.8 0.709091
v -0.909091 4.8 0
v 0 5.2 0.909091
v -0.709091 5.2 0.909091
v 0 5.8 0.909091
v -0.709091 5.8 0.909091
v -0.909091 5.2 0.709091
v -0.909091 5.2 0
v -0.909091 5.8 0.709091
v -0.909091 5.8 0
v 0 6.2 0.909091
v -0.709091 6.2 0.909091
v 0 6.8 0.909091
v -0.709091 6.8 0.909091
v -0.909091 6.2 0.709091
v -0.909091 6.2 0
v -0.909091 6.8 0.709091
v -0.909091 6.8 0
v 0 7.2 0.909091
v -0.709091 7.2 0.909091
v 0 7.8 0.909091
v -0.709091 7.8 0.909091
v -0.909091 7.2 0.709091
v -0.909091 7.2 0
v -0.909091 7.8 0.709091
v -0.909091 7.8 0
v 0 8.2 0.909091
v -0.709091 8.2 0.909091
v 0 8.8 0.909091
v -0.709091 8.8 0.909091
v -0.909091 8.2 0.709091
v -0.909091 8.2 0
v -0.909091 8.8 0.709091
v -0.909091 8.8 0
v 0 9.2 0.909091
v -0.709091 9.2 0.909091
v 0 9.8 0.909091
v -0.709091 9.8 0.909091
v -0.909091 9.2 0.709091
v -0.909091 9.2 0
v -0.909091 9.8 0.709091
v -0.909091 9.8 0
v -1.109091 0 0
v -1.109091 0 0.909091
v -0.909091 0 1.109091
v 0 0 1.109091
v -0.909091 0.1 0.909091
v -0.809091 1 0.809091
v -0.809091 2 0.809091
v -0.809091 3 0.809091
v -0.809091 4 0.809091
v -0.809091 5 0.809091
v -0.809091 6 0.809091
v -0.809091 7 0.809091
v -0.809091 8 0.809091
v -0.809091 9 0.809091

vt 0 0
vt 0 0.709091
vt 0.709091 0
vt 0.709091 0.709091
vt 0 0.2
vt -0.709091 0.2
vt 0 0.8
vt -0.709091 0.8
vt 0.709091 0.2
vt 0.709091 0.8
vt 0 1.2
vt -0.709091 1.2
vt 0 1.8
vt -0.709091 1.8
vt 0.709091 1.2
vt 0.709091 1.8
vt 0 2.2
vt -0.709091 2.2
vt 0 2.8
vt -0.709091 2.8
vt 0.709091 2.2
vt 0.709091 2.8
vt 0 3.2
vt -0.709091 3.2
vt 0 3.8
vt -0.709091 3.8
vt 0.709091 3.2
vt 0.709091 3.8
vt 0 4.2
vt -0.709091 4.2
vt 0 4.8
vt -0.709091 4.8
vt 0.709091 4.2
vt 0.709091 4.8
vt 0 5.2
vt -0.709091 5.2
vt 0 5.8
vt -0.709091 5.8
vt 0.709091 5.2
vt 0.709091 5.8
vt 0 6.2
vt -0.709091 6.2
vt 0 6.8
vt -0.709091 6.8
vt 0.709091 6.2
vt 0.709091 6.8
vt 0 7.2
vt -0.709091 7.2
vt 0 7.8
vt -0.709091 7.8
vt 0.709091 7.2
vt 0.709091 7.8
vt 0 8.2
vt -0.709091 8.2
vt 0 8.8
vt -0.709091 8.8
vt 0.709091 8.2
vt 0.709091 8.8
vt 0 9.2
vt -0.709091 9.2
vt 0 9.8
vt -0.709091 9.8
vt 0.709091 9.2
vt 0.709091 9.8
vt 0.7842459 0
vt 0.7842459 0.909091
vt 0.5014032 0
vt 0.5014032 0.709091
vt 0.1414213 0.2
vt 0.1414213 0.8
vt -0.1414213 0.2
vt -0.1414213 0.8
vt 0.909091 0.784246
vt 0 0.784246
vt 0.709091 0.5014032
vt 0 0.5014032
vt 0.1414213 1.2
vt 0.1414213 1.8
vt -0.1414213 1.2
vt -0.1414213 1.8
vt 0.1414213 2.2
vt 0.1414213 2.8
vt -0.1414213 2.2
vt -0.1414213 2.8
vt 0.1414213 3.2
vt 0.1414213 3.8
vt -0.1414213 3.2
vt -0.1414213 3.8
vt 0.1414213 4.2
vt 0.1414213 4.8
vt -0.1414213 4.2
vt -0.1414213 4.8
vt 0.1414213 5.2
vt 0.1414213 5.8
vt -0.1414213 5.2
vt -0.1414213 5.8
vt 0.1414213 6.2
vt 0.1414213 6.8
vt -0.1414213 6.2
vt -0.1414213 6.8
vt 0.1414213 7.2
vt 0.1414213 7.8
vt -0.1414213 7.2
vt -0.1414213 7.8
vt 0.1414213 8.2
vt 0.1414213 8.8
vt -0.1414213 8.2
vt -0.1414213 8.8
vt 0.1414213 9.2
vt 0.1414213 9.8
vt -0.1414213 9.2
vt -0.1414213 9.8
vt -6.569662 0.709091
vt -6.569662 0
vt -6.286819 0.709091
vt -6.286819 0
vt 0 -6.569661
vt 0.709091 -6.569661
vt 0 -6.286818
vt 0.709091 -6.286818
vt 0.723673 0.4083023
vt 0.7683944 0.6273913
vt 0.9920012 0.6273913
vt 0.8131157 0.8464805
vt 0.5447875 0.6273914
vt -0.1414213 0.7999998
vt 0 0.9999998
vt 0.1414213 0.7999998
vt 3.858046E-07 1
vt 0 2
vt 3.375791E-07 2
vt 0 3
vt 3.375791E-07 3
vt 0 4
vt 0.1414213 4.2
vt 0 4
vt -0.1414213 4.2
vt -0.1414213 4.8
vt 0 5
vt 0.1414213 4.8
vt 3.375791E-07 5
vt 0.1414213 5.2
vt -0.1414213 5.2
vt -0.1414213 5.8
vt 0 6
vt 0.1414213 5.8
vt 3.375791E-07 6
vt 0.1414213 6.2
vt -0.1414213 6.2
vt -0.1414213 6.8
vt 0 7
vt 0.1414213 6.8
vt 3.375791E-07 7
vt 0.1414213 7.2
vt -0.1414213 7.2
vt -0.1414213 7.8
vt 0 8
vt 0.1414213 7.8
vt 3.375791E-07 8
vt 0 9
vt -6.42824 -3.548049
vt -6.286819 -3.792998
vt -6.569662 -3.792998

vn 0 1 0
vn 0 0 1
vn -1 0 0
vn -0.7071067 0.7071069 0
vn -0.7071068 0 0.7071068
vn 0 0.7071069 0.7071067
vn -0.4082482 0.8164966 0.4082483
vn -0.5773501 0.5773506 0.5773501

g Plane
usemtl ProBuilderDefault
f 86/123/7 89/122/7 9/121/7
f 87/124/7 89/122/7 86/123/7
f 6/125/7 89/122/7 87/124/7
f 9/121/7 89/122/7 6/125/7
f 8/128/5 90/127/5 11/126/5
f 14/77/5 90/129/5 8/70/5
f 17/79/5 90/129/5 14/77/5
f 11/72/5 90/129/5 17/79/5
f 16/78/5 91/130/5 19/80/5
f 22/81/5 91/131/5 16/78/5
f 25/83/5 91/131/5 22/81/5
f 19/80/5 91/131/5 25/83/5
f 24/82/5 92/132/5 27/84/5
f 30/85/5 92/133/5 24/82/5
f 33/87/5 92/133/5 30/85/5
f 27/84/5 92/133/5 33/87/5
f 32/86/5 93/134/5 35/88/5
f 38/89/5 93/134/5 32/86/5
f 41/137/5 93/136/5 38/135/5
f 35/88/5 93/134/5 41/91/5
f 40/140/5 94/139/5 43/138/5
f 46/93/5 94/141/5 40/90/5
f 49/143/5 94/141/5 46/142/5
f 43/92/5 94/141/5 49/95/5
f 48/146/5 95/145/5 51/144/5
f 54/97/5 95/147/5 48/94/5
f 57/149/5 95/147/5 54/148/5
f 51/96/5 95/147/5 57/99/5
f 56/152/5 96/151/5 59/150/5
f 62/101/5 96/153/5 56/98/5
f 65/155/5 96/153/5 62/154/5
f 59/100/5 96/153/5 65/103/5
f 64/158/5 97/157/5 67/156/5
f 70/105/5 97/159/5 64/102/5
f 73/107/5 97/159/5 70/105/5
f 67/104/5 97/159/5 73/107/5
f 72/106/5 98/160/5 75/108/5
f 78/109/5 98/160/5 72/106/5
f 81/111/5 98/160/5 78/109/5
f 75/108/5 98/160/5 81/111/5
f 4/163/8 83/162/8 80/161/8
f 4/4/1 2/2/1 1/1/1
f 1/1/1 3/3/1 4/4/1
f 8/8/2 6/6/2 5/5/2
f 5/5/2 7/7/2 8/8/2
f 12/7/3 10/5/3 9/9/3
f 9/9/3 11/10/3 12/7/3
f 16/14/2 14/12/2 13/11/2
f 13/11/2 15/13/2 16/14/2
f 20/13/3 18/11/3 17/15/3
f 17/15/3 19/16/3 20/13/3
f 24/20/2 22/18/2 21/17/2
f 21/17/2 23/19/2 24/20/2
f 28/19/3 26/17/3 25/21/3
f 25/21/3 27/22/3 28/19/3
f 32/26/2 30/24/2 29/23/2
f 29/23/2 31/25/2 32/26/2
f 36/25/3 34/23/3 33/27/3
f 33/27/3 35/28/3 36/25/3
f 40/32/2 38/30/2 37/29/2
f 37/29/2 39/31/2 40/32/2
f 44/31/3 42/29/3 41/33/3
f 41/33/3 43/34/3 44/31/3
f 48/38/2 46/36/2 45/35/2
f 45/35/2 47/37/2 48/38/2
f 52/37/3 50/35/3 49/39/3
f 49/39/3 51/40/3 52/37/3
f 56/44/2 54/42/2 53/41/2
f 53/41/2 55/43/2 56/44/2
f 60/43/3 58/41/3 57/45/3
f 57/45/3 59/46/3 60/43/3
f 64/50/2 62/48/2 61/47/2
f 61/47/2 63/49/2 64/50/2
f 68/49/3 66/47/3 65/51/3
f 65/51/3 67/52/3 68/49/3
f 72/56/2 70/54/2 69/53/2
f 69/53/2 71/55/2 72/56/2
f 76/55/3 74/53/3 73/57/3
f 73/57/3 75/58/3 76/55/3
f 80/62/2 78/60/2 77/59/2
f 77/59/2 79/61/2 80/62/2
f 84/61/3 82/59/3 81/63/3
f 81/63/3 83/64/3 84/61/3
f 10/67/4 85/65/4 86/66/4
f 86/66/4 9/68/4 10/67/4
f 9/71/5 6/69/5 8/70/5
f 8/70/5 11/72/5 9/71/5
f 18/11/3 12/7/3 11/10/3
f 11/10/3 17/15/3 18/11/3
f 6/75/6 87/73/6 88/74/6
f 88/74/6 5/76/6 6/75/6
f 14/12/2 8/8/2 7/7/2
f 7/7/2 13/11/2 14/12/2
f 17/79/5 14/77/5 16/78/5
f 16/78/5 19/80/5 17/79/5
f 22/18/2 16/14/2 15/13/2
f 15/13/2 21/17/2 22/18/2
f 26/17/3 20/13/3 19/16/3
f 19/16/3 25/21/3 26/17/3
f 25/83/5 22/81/5 24/82/5
f 24/82/5 27/84/5 25/83/5
f 30/24/2 24/20/2 23/19/2
f 23/19/2 29/23/2 30/24/2
f 34/23/3 28/19/3 27/22/3
f 27/22/3 33/27/3 34/23/3
f 33/87/5 30/85/5 32/86/5
f 32/86/5 35/88/5 33/87/5
f 42/29/3 36/25/3 35/28/3
f 35/28/3 41/33/3 42/29/3
f 38/30/2 32/26/2 31/25/2
f 31/25/2 37/29/2 38/30/2
f 41/91/5 38/89/5 40/90/5
f 40/90/5 43/92/5 41/91/5
f 50/35/3 44/31/3 43/34/3
f 43/34/3 49/39/3 50/35/3
f 46/36/2 40/32/2 39/31/2
f 39/31/2 45/35/2 46/36/2
f 49/95/5 46/93/5 48/94/5
f 48/94/5 51/96/5 49/95/5
f 58/41/3 52/37/3 51/40/3
f 51/40/3 57/45/3 58/41/3
f 54/42/2 48/38/2 47/37/2
f 47/37/2 53/41/2 54/42/2
f 57/99/5 54/97/5 56/98/5
f 56/98/5 59/100/5 57/99/5
f 62/48/2 56/44/2 55/43/2
f 55/43/2 61/47/2 62/48/2
f 66/47/3 60/43/3 59/46/3
f 59/46/3 65/51/3 66/47/3
f 65/103/5 62/101/5 64/102/5
f 64/102/5 67/104/5 65/103/5
f 70/54/2 64/50/2 63/49/2
f 63/49/2 69/53/2 70/54/2
f 74/53/3 68/49/3 67/52/3
f 67/52/3 73/57/3 74/53/3
f 73/107/5 70/105/5 72/106/5
f 72/106/5 75/108/5 73/107/5
f 82/59/3 76/55/3 75/58/3
f 75/58/3 81/63/3 82/59/3
f 78/60/2 72/56/2 71/55/2
f 71/55/2 77/59/2 78/60/2
f 81/111/5 78/109/5 80/110/5
f 80/110/5 83/112/5 81/111/5
f 83/115/4 4/113/4 3/114/4
f 3/114/4 84/116/4 83/115/4
f 79/119/6 2/117/6 4/118/6
f 4/118/6 80/120/6 79/119/6

